<svg width="1000" height="388" viewBox="0 0 1000 388" fill="none" xmlns="http://www.w3.org/2000/svg">
<g clip-path="url(#clip0)">
<path d="M172.508 307.412L179.254 299.356C183.926 303.209 188.818 305.655 194.743 305.655C199.423 305.655 202.235 303.802 202.235 300.762V300.609C202.235 297.723 200.456 296.214 191.784 294.017C181.326 291.344 174.581 288.451 174.581 278.147V278.001C174.581 268.59 182.146 262.357 192.751 262.357C199.746 262.243 206.561 264.574 212.02 268.949L206.117 277.539C201.517 274.346 196.991 272.413 192.619 272.413C188.247 272.413 185.947 274.412 185.947 276.931V277.07C185.947 280.476 188.144 281.589 197.145 283.889C207.669 286.635 213.601 290.414 213.601 299.459V299.605C213.601 309.91 205.743 315.717 194.56 315.717C186.438 315.755 178.587 312.799 172.508 307.412V307.412ZM252.431 262.189C236.422 262.189 224.785 274.273 224.785 289.023V289.176C224.785 303.926 236.275 315.864 252.285 315.864C268.294 315.864 279.939 303.78 279.939 289.023V288.876C279.939 274.141 268.448 262.189 252.431 262.189V262.189ZM268.009 289.176C268.009 298.075 261.63 305.34 252.431 305.34C243.233 305.34 236.715 297.921 236.715 289.023V288.876C236.715 279.985 243.094 272.713 252.285 272.713C261.476 272.713 268.009 280.132 268.009 289.023V289.176ZM293.07 263.075H303.594L327.916 295.035V263.075H339.187V314.97H329.469L304.341 281.985V314.97H293.07V263.075ZM353.725 289.176V289.023C353.725 274.273 365.216 262.189 380.932 262.189C390.277 262.189 395.909 264.708 401.321 269.3L394.129 277.979C390.131 274.646 386.564 272.713 380.566 272.713C372.261 272.713 365.662 280.037 365.662 288.876V289.023C365.662 298.543 372.188 305.486 381.379 305.486C385.203 305.602 388.966 304.514 392.137 302.374V294.955H380.639V285.126H403.174V307.661C397.021 312.991 389.146 315.913 381.005 315.886C364.842 315.886 353.725 304.519 353.725 289.176V289.176ZM443 289.176V289.023C443 274.273 454.117 262.189 470.061 262.189C479.845 262.189 485.704 265.448 490.523 270.194L483.251 278.572C479.252 274.91 475.195 272.713 469.988 272.713C461.236 272.713 454.938 279.985 454.938 288.876V289.023C454.938 297.921 461.089 305.34 469.988 305.34C475.913 305.34 479.545 302.967 483.624 299.261L490.889 306.585C485.55 312.29 479.618 315.849 469.614 315.849C454.344 315.886 443 304.073 443 289.176V289.176ZM528.357 262.189C512.34 262.189 500.703 274.273 500.703 289.023V289.176C500.703 303.926 512.194 315.864 528.211 315.864C544.228 315.864 555.857 303.78 555.857 289.023V288.876C555.843 274.141 544.352 262.189 528.357 262.189ZM543.927 289.176C543.927 298.075 537.548 305.34 528.357 305.34C519.166 305.34 512.633 297.921 512.633 289.023V288.876C512.633 279.985 519.012 272.713 528.211 272.713C537.409 272.713 543.927 280.132 543.927 289.023V289.176ZM568.974 263.075H579.505L603.82 295.035V263.075H615.091V314.97H605.38L580.245 281.985V314.97H568.974V263.075ZM642.972 273.606H627.182V263.075H670.18V273.606H654.39V314.97H642.972V273.606ZM683.384 263.075H722.529V273.233H694.728V283.757H719.197V293.915H694.728V304.82H722.903V314.97H683.384V263.075ZM733.881 307.412L740.633 299.356C745.298 303.209 750.19 305.655 756.13 305.655C760.795 305.655 763.615 303.802 763.615 300.762V300.609C763.615 297.723 761.835 296.214 753.156 294.017C742.706 291.344 735.961 288.451 735.961 278.147V278.001C735.961 268.59 743.519 262.357 754.123 262.357C761.12 262.241 767.938 264.572 773.399 268.949L767.467 277.554C762.868 274.361 758.349 272.427 753.977 272.427C749.605 272.427 747.305 274.427 747.305 276.946V277.07C747.305 280.476 749.502 281.589 758.495 283.889C769.027 286.635 774.959 290.414 774.959 299.459V299.605C774.959 309.91 767.101 315.717 755.917 315.717C747.801 315.749 739.957 312.793 733.881 307.412V307.412ZM800.248 273.606H784.45V263.075H827.455V273.606H811.658V314.97H800.248V273.606ZM865.245 93.0639C871.001 86.3627 874.949 82.4592 874.033 77.816C873.118 73.1728 857.416 69.9431 850.414 76.4099C829.703 59.9756 833.944 79.2222 836.939 83.5138C812.478 100.724 795.927 146.014 809.241 181.35C822.255 215.896 861.532 220.166 882.119 195.881C900.347 174.378 897.095 134.867 865.223 93.0639H865.245ZM849.353 192.534C835.972 191.853 828.326 176.019 829.264 159.834C830.904 131.323 854.735 102.533 854.735 102.533C860.301 107.616 877.036 135.131 876.128 156.194C875.242 176.737 862.718 193.207 849.353 192.534ZM98.3346 50.7185C38.039 57.3611 17.9503 92.5146 16.0974 97.2603C14.6839 100.922 15.0354 101.757 19.0268 101.757C23.0182 101.757 77.7405 95.693 93.5962 96.4694C109.708 97.2603 108.668 114.976 95.9764 118.682C44.1469 133.219 14.0028 170.248 14.0028 189.282C14.0028 203.827 24.5782 210.704 36.7427 210.704C72.9655 210.704 109.62 173.06 116.453 164.777C120.767 159.548 123.44 162.836 123.44 165.165C123.499 195.749 90.6301 231.854 46.5418 231.854C15.0501 231.854 0 207.789 0 187.7C0 149.617 41.2541 117.093 41.2541 117.093C41.2541 117.093 20.3451 117.884 13.2045 117.884C7.96739 118.04 3.55197 114.01 3.22973 108.78C1.28164 59.2726 52.2982 21.0431 98.4371 24.39C116.651 25.7083 118.694 49.1293 98.3346 50.7185ZM151.57 166.344C152.471 175.426 158.667 185.012 167.082 175.814C188.379 151.104 186.277 82.9938 185.75 75.6702C185.222 68.3465 189.17 66.2007 192.055 70.1482C194.941 74.0956 208.621 95.9127 208.621 129.301C208.621 169.794 184.453 211.275 165.536 211.275C122.415 211.275 126.326 112.479 139.215 79.874C145.902 62.9344 163.662 70.2873 163.662 82.2395C163.64 99.5672 148.941 139.789 151.57 166.344V166.344ZM370.408 89.1091C370.408 89.1091 377.248 79.8154 373.132 74.5716C368.504 68.6615 353.674 66.8159 339.773 82.386C321.464 102.892 308.662 146.102 322.519 182.398C335.745 217.09 372.854 220.019 390.05 193.727C405.378 170.262 401.35 131.169 370.408 89.1091V89.1091ZM360.726 188.337C348.613 188.337 341.89 172.694 341.89 155.71C341.89 125.779 363.414 98.5419 363.414 98.5419C369.332 106.093 383.591 127.397 383.591 148.965C383.591 170.533 372.825 188.337 360.726 188.337Z" fill="white"/>
<path d="M259.579 138.514C284.699 136.925 316.169 117.356 316.169 96.4694C316.169 80.9945 300.057 69.8479 279.185 69.8479C258.312 69.8479 235.243 76.9006 226.52 82.1882C215.154 88.7795 223.591 104.401 234.196 100.168C234.196 100.168 230.226 118.682 229.172 128.466C220.581 127.404 218.853 128.994 219.38 130.847C219.907 132.699 223.613 134.281 227.846 139.576C226.52 151.206 224.184 202.941 224.711 207.445C225.239 211.949 227.97 212.747 231.852 207.965C235.287 203.739 242.654 193.515 246.089 154.912C250.059 158.34 260.898 172.87 274.124 189.809C293.517 214.673 299.911 216.46 307.879 219.265C312.178 220.781 316.609 218.313 313.445 213.933C300.548 196.034 284.355 160.207 259.579 138.514ZM250.85 96.9967C250.85 96.9967 281.001 89.3215 291.313 90.4054C300.284 91.3282 302.152 95.1657 297.582 102.262C286.816 118.975 262.062 124.761 248.733 124.519C249.795 111.014 250.85 96.9967 250.85 96.9967V96.9967ZM640.988 70.3972C648.897 72.9605 655.759 86.5092 653.848 108.649C650.728 144.761 626.399 189.677 622.862 206.712C621.682 212.417 617.244 212.146 615.216 209.012C613.282 206.016 609.203 196.818 610.309 174.078C611.825 142.887 635.451 100.153 634.755 73.2827C634.653 69.6868 637.48 69.2547 640.988 70.3972V70.3972ZM721.064 95.9347C693.3 95.9347 684.658 104.489 684.658 111.014C684.658 128.466 714.81 127.229 728.739 128.818C736.795 129.733 747.246 134.984 747.246 148.914C747.246 164.294 727.992 176.656 707.537 187.912C686.057 199.733 663.911 211.348 653.804 218.291C648.597 221.872 645.228 217.244 647.718 212.388C654.91 198.385 668.356 185.188 686.768 172.701C713.711 154.392 731.032 146.087 723.796 143.451C719.797 141.986 708.812 141.158 697.526 139.056C678.14 135.878 665.976 124.599 665.976 108.202C665.976 81.5877 689.822 69.8625 722.881 69.8625C740.325 69.8479 742.486 95.9347 721.064 95.9347V95.9347ZM773.362 69.9577C782.151 70.6901 797.164 82.4739 795.487 112.86C794.176 136.72 773.853 188.066 772.095 206.983C771.737 210.828 767.928 212.967 765.021 209.4C759.338 202.443 756.921 194.885 756.921 173.419C756.921 151.953 775.332 95.466 764.515 74.7035C762.055 70.4265 768.492 69.5476 773.362 69.9577V69.9577ZM771.773 6.34456C769.935 -0.913179 777.727 -1.71146 783.227 2.76329C786.772 5.69275 804.415 23.1011 804.415 44.1858C804.415 68.3539 771.407 65.1901 771.956 45.4016C772.147 38.488 775.992 21.5485 771.773 6.34456V6.34456ZM991.746 211.678C970.647 193.471 972.639 141.319 971.577 120.689C970.537 100.409 945.073 101.969 938.833 110.436C934.329 136.427 932.791 183.123 919.623 208.77C917.719 212.234 912.871 211.641 912.373 207.701C911.86 203.541 906.982 192.673 906.982 162.001C906.982 131.33 910.556 87.0951 935.34 71.6788C939.844 69.2474 942.956 69.2474 943.132 71.8473C943.278 74.1249 942.473 81.3241 942.297 86.0039C942.297 86.0039 951.657 78.8999 967.417 78.8999C979.552 78.8999 1000 91.5479 1000 116.155C1000 148.379 994.06 182.581 998.381 209.166C998.997 213.003 994.595 214.131 991.746 211.678V211.678Z" fill="white"/>
<path d="M502.087 45.4821C500.666 43.4901 499.443 41.4248 497.898 39.6232C491.929 32.7463 484.283 28.5206 475.62 26.0964C469.951 24.5072 464.143 23.5844 458.27 24.6317C447.065 26.6823 437.639 32.219 429.327 39.7843C419.074 49.1366 412.285 60.6933 408.337 73.9345C403.621 89.7682 402.859 105.88 405.335 122.168C407.781 138.199 414.328 152.429 424.435 165.063C433.304 176.143 444.077 185.115 455.787 192.966C465.454 199.44 475.378 205.533 485.082 211.919C491.116 215.881 496.909 220.151 501.194 226.149C503.01 228.683 506.093 228.039 507.199 224.963C509.116 219.894 511.849 215.174 515.292 210.989C522.615 201.71 531.404 193.859 540.148 185.957C551.207 175.938 562.419 166.088 573.258 155.842C585.277 144.498 596.16 132.136 604.97 118.067C617.779 97.6045 623.836 75.5896 620.232 51.3777C618.599 40.3556 614.864 30.1391 608.141 21.1383C596.116 5.0263 576.649 -4.2967 554.547 2.24331C539.167 6.80595 526.526 15.587 515.673 27.1437C510.487 32.741 505.931 38.8907 502.087 45.4821V45.4821Z" fill="#FEFEFE"/>
<path d="M502.087 45.4821C505.942 38.8995 510.508 32.7597 515.702 27.173C526.556 15.5943 539.138 6.81327 554.576 2.27261C576.679 -4.26741 596.145 5.08489 608.17 21.1676C614.893 30.1464 618.628 40.3849 620.262 51.4069C623.865 75.6189 617.808 97.6338 604.999 118.096C596.211 132.165 585.306 144.527 573.288 155.871C562.449 166.125 551.236 175.968 540.178 185.986C531.448 193.889 522.667 201.739 515.321 211.019C511.879 215.203 509.145 219.924 507.228 224.992C506.123 228.068 503.039 228.712 501.223 226.178C496.924 220.18 491.131 215.925 485.111 211.949C475.393 205.562 465.469 199.498 455.816 192.995C444.099 185.144 433.333 176.151 424.464 165.092C414.357 152.459 407.81 138.229 405.364 122.197C402.888 105.91 403.65 89.7975 408.367 73.9638C412.314 60.7226 419.088 49.1659 429.356 39.8136C437.668 32.2483 447.101 26.7116 458.299 24.6903C464.158 23.6357 470.017 24.5585 475.649 26.155C484.313 28.5791 491.959 32.8049 497.927 39.6818C499.443 41.4248 500.666 43.4901 502.087 45.4821V45.4821ZM559.116 138.126C561.05 135.797 563.027 133.505 564.909 131.132C573.427 120.344 581.087 108.956 586.587 96.2936C590.249 87.9007 592.944 79.2295 593.713 70.0383C593.771 69.8887 593.815 69.7343 593.845 69.5769C594.499 62.9856 594.277 56.3358 593.186 49.8031C592.225 43.1464 590.016 36.731 586.675 30.8934C581.659 22.4639 574.481 16.9785 564.587 15.7628C556.531 14.7594 548.856 16.4146 541.606 20.0398C530.957 25.3787 522.564 33.3175 515.431 42.7431C511.242 48.2944 507.514 54.124 505.91 61.0522C505.744 61.677 505.498 62.2777 505.178 62.8392C503.567 65.8858 500.784 66.4644 498.469 63.9231C497.063 62.3716 496.022 60.5248 495.423 58.5182C494.315 54.259 492.263 50.3039 489.417 46.9468C482.577 39.03 473.708 35.9614 463.521 36.9647C456.578 37.6971 450.705 41.1685 445.666 45.9069C434.402 56.4896 429.598 70.1262 427.423 84.9786C427.1 87.6517 426.69 90.3175 426.471 92.9979C425.064 107.792 427.034 122.051 433.794 135.38C436.277 140.265 439.477 144.776 442.348 149.456C446.362 154.216 450.148 159.189 454.44 163.686C463.719 173.39 474.382 181.541 484.84 189.904C490.084 194.101 495.379 198.268 499.663 203.526C500.454 204.493 501.128 205.562 501.911 206.646C504.511 200.201 508.503 193.683 514.625 186.953C523.838 176.788 533.264 166.813 542.514 156.692C548.131 150.576 553.565 144.322 559.116 138.126V138.126Z" fill="white"/>
<path d="M442.363 149.463C439.492 144.783 436.292 140.272 433.809 135.387C427.042 122.058 425.072 107.799 426.485 93.0053C426.742 90.3248 427.115 87.659 427.437 84.9859C429.598 84.7881 431.751 84.5831 433.911 84.3927C441.724 83.6947 449.55 83.0012 457.391 82.3127C466.668 81.4874 475.944 80.6525 485.221 79.8081L508.21 77.7428C517.276 76.9225 526.343 76.1001 535.41 75.2747C544.425 74.4618 553.441 73.6855 562.449 72.8726L593.699 70.0383C592.966 79.2295 590.242 87.9007 586.573 96.2936C581.036 108.956 573.39 120.344 564.858 131.132C562.976 133.505 560.999 135.797 559.065 138.126C555.345 138.47 551.624 138.8 547.904 139.159C537.233 140.192 526.563 141.253 515.892 142.286C505.222 143.319 494.434 144.307 483.668 145.333C472.565 146.392 461.462 147.462 450.36 148.54C447.724 148.804 445.043 149.156 442.363 149.463V149.463Z" fill="#FEFEFE"/>
<path d="M593.713 70.0383L562.463 72.8726C553.455 73.6855 544.44 74.4618 535.424 75.2747C526.409 76.0876 517.291 76.9225 508.224 77.7428C500.564 78.4407 492.901 79.1292 485.236 79.8081L457.406 82.3127C449.594 83.0158 441.767 83.7094 433.926 84.3927C431.766 84.5831 429.612 84.7881 427.452 84.9859C429.649 70.1335 434.431 56.4969 445.695 45.9142C450.734 41.1758 456.607 37.6751 463.55 36.972C473.737 35.9394 482.592 39.0373 489.447 46.9542C492.292 50.3113 494.345 54.2663 495.452 58.5255C496.042 60.5379 497.075 62.3924 498.477 63.9524C500.762 66.4937 503.603 65.9151 505.185 62.8685C505.505 62.307 505.752 61.7063 505.918 61.0815C507.492 54.146 511.22 48.3164 515.438 42.7724C522.542 33.3615 530.964 25.4227 541.613 20.0691C548.863 16.4439 556.531 14.7887 564.595 15.7921C574.489 17.0298 581.666 22.4932 586.683 30.9227C590.023 36.7603 592.232 43.1757 593.193 49.8324C594.285 56.3651 594.507 63.0149 593.853 69.6062C593.818 69.7538 593.772 69.8984 593.713 70.0383V70.0383Z" fill="#D9332F"/>
<path d="M442.363 149.463C445.043 149.156 447.724 148.804 450.419 148.54C461.522 147.457 472.624 146.387 483.727 145.333C494.456 144.307 505.185 143.319 515.951 142.286C526.717 141.253 537.292 140.192 547.963 139.159C551.683 138.8 555.403 138.47 559.124 138.126C553.609 144.322 548.138 150.576 542.572 156.699C533.323 166.82 523.897 176.795 514.684 186.96C508.591 193.691 504.57 200.209 501.97 206.654C501.194 205.57 500.505 204.5 499.722 203.534C495.437 198.275 490.142 194.108 484.899 189.912C474.44 181.548 463.777 173.397 454.498 163.693C450.163 159.196 446.376 154.224 442.363 149.463V149.463Z" fill="#195F97"/>
<path d="M183.193 343.774H201.502C206.723 343.774 210.92 345.356 213.593 348.029C215.76 350.276 216.941 353.294 216.874 356.415V356.539C216.874 363.585 212.011 367.723 205.325 368.938L218.397 386.317H212.538L200.147 369.788H187.99V386.317H183.193V343.774ZM201.062 365.474C207.441 365.474 211.996 362.193 211.996 356.686V356.561C211.996 351.332 207.99 348.176 201.121 348.176H187.99V365.438L201.062 365.474ZM231.25 365.167V365.049C231.25 353.332 240.039 343.078 253.009 343.078C265.979 343.078 274.65 353.229 274.65 364.962V365.086C274.65 376.804 265.862 387.057 252.892 387.057C239.921 387.057 231.25 376.899 231.25 365.167ZM269.663 365.167V365.049C269.663 355.382 262.617 347.473 252.892 347.473C243.166 347.473 236.238 355.258 236.238 364.954V365.079C236.238 374.739 243.29 382.655 253.009 382.655C262.727 382.655 269.663 374.834 269.663 365.167V365.167ZM299.543 348.212H285.262V343.774H318.687V348.212H304.406V386.295H299.543V348.212ZM346.671 348.212H332.383V343.774H365.808V348.212H351.527V386.295H346.664L346.671 348.212ZM380.88 343.774H411.639V348.168H385.684V362.699H408.9V367.093H385.684V381.945H411.939V386.339H380.88V343.774ZM427.685 343.774H445.994C451.216 343.774 455.412 345.356 458.086 348.029C460.252 350.276 461.433 353.294 461.367 356.415V356.539C461.367 363.585 456.504 367.723 449.817 368.938L462.89 386.317H457.031L444.639 369.788H432.482V386.317H427.685V343.774ZM445.555 365.474C451.934 365.474 456.489 362.193 456.489 356.686V356.561C456.489 351.332 452.483 348.176 445.613 348.176H432.482V365.438L445.555 365.474ZM478.555 343.774H493.32C506.693 343.774 515.935 352.951 515.935 364.925V365.049C515.935 377.024 506.693 386.288 493.32 386.288H478.555V343.774ZM483.352 348.212V381.901H493.32C504.078 381.901 510.948 374.578 510.948 365.181V365.064C510.948 355.639 504.078 348.22 493.32 348.22L483.352 348.212ZM545.457 343.467H549.961L569.346 386.317H564.22L559.232 375.076H536.038L530.992 386.317H526.071L545.457 343.467ZM557.314 370.696L547.646 349.062L537.921 370.696H557.314ZM584.169 343.774H589.032L604.529 366.99L620.033 343.774H624.889V386.317H620.092V351.896L604.595 374.687H604.346L588.849 351.984V386.405H584.169V343.774ZM667.871 382.612L683.31 368.997C689.813 363.138 692.186 359.879 692.186 355.624C692.186 350.644 688.231 347.48 683.617 347.48C678.754 347.48 675.561 350.036 672.185 354.804L668.662 352.255C672.493 346.535 676.506 343.196 683.976 343.196C691.637 343.196 697.159 348.322 697.159 355.228V355.353C697.159 361.549 693.878 365.379 686.4 371.882L675.041 381.945H697.591V386.339H667.871V382.612ZM711.301 365.167V365.049C711.301 353.134 718.412 343.078 729.346 343.078C740.28 343.078 747.216 353.046 747.216 364.962V365.086C747.216 376.994 740.17 387.057 729.229 387.057C718.287 387.057 711.301 377.082 711.301 365.167V365.167ZM742.236 365.167V365.049C742.236 355.748 737.109 347.421 729.229 347.421C721.349 347.421 716.281 355.565 716.281 364.925V365.049C716.281 374.343 721.407 382.67 729.346 382.67C737.285 382.67 742.236 374.475 742.236 365.167ZM759.476 382.612L774.914 368.997C781.417 363.138 783.79 359.879 783.79 355.624C783.79 350.644 779.835 347.48 775.221 347.48C770.359 347.48 767.165 350.036 763.789 354.804L760.267 352.255C764.097 346.535 768.11 343.196 775.58 343.196C783.241 343.196 788.763 348.322 788.763 355.228V355.353C788.763 361.549 785.482 365.379 778.004 371.882L766.675 381.945H789.224V386.339H759.505L759.476 382.612Z" fill="white"/>
<path d="M803.033 347.084L804.187 350.972L812.205 348.481V386.325H816.943V343.5H813.42L803.033 347.084Z" fill="white"/>
</g>
<defs>
<clipPath id="clip0">
<rect width="1000" height="387.057" fill="white"/>
</clipPath>
</defs>
</svg>
